<?xml version="1.0" encoding="utf-8"?>
<!-- Generator: Adobe Illustrator 19.0.0, SVG Export Plug-In . SVG Version: 6.00 Build 0)  -->
<svg version="1.0" xmlns="http://www.w3.org/2000/svg" viewBox="0 0 28.1 28" height="24" width="24">
	<path fill="#AAA" class="st2" d="M6.1,9.1c0-0.5,0.4-0.9,0.9-0.9c0.5,0,0.9,0.4,0.9,0.9c0,0.5-0.4,0.9-0.9,0.9C6.4,9.9,6.1,9.6,6.1,9.1
		 M0.1,13.7L0.1,13.7L0,20.1l1.4,0.1L0,20.3l0,0.4l1.4,0.1L0,20.9l0,0.4l1.4,0.1L0,21.5L0,22h0.6v2.8c0,0.2,0.2,0.4,0.4,0.4
		c0.3,0,0.3-0.4,0.3-0.4V22l1.3,0l0,2.8c0,0.2,0.1,0.4,0.4,0.4c0.3,0,0.3-0.2,0.3-0.4c0-0.1,0-2.8,0-2.8h0.8v-0.5l-1.5-0.1l1.5-0.1
		v-0.4l-1.5-0.1l1.5-0.1v-0.4l-1.5-0.1l1.5-0.1v-3.5c0-1,0.8-1.9,1.8-1.9c1,0,1.9,0.8,1.9,1.8v10c1.7,0.9,3.8,1.4,5.9,1.5v-6.2
		c0-1.8,1.4-3.4,3.2-3.4c1.9-0.1,3.5,1.4,3.5,3.3v4.8c2.6-1.4,4.9-3.6,6.2-6.3c0-0.1,0-0.1-0.1-0.2c-0.1-0.1-0.1-0.3-0.1-0.4
		c0-0.1-0.1-0.3-0.1-0.4c0-0.1-0.1-0.3-0.1-0.4l-0.1-0.2l0-0.2c0-0.1-0.1-0.3-0.1-0.4c-0.1-0.3-0.1-0.6-0.1-0.8
		c0-0.3-0.1-0.5-0.1-0.8c0-0.1,0-0.2,0-0.4c0-0.1,0-0.2,0-0.3c0-0.2,0-0.4,0-0.6c0-0.2,0-0.3,0-0.5c0-0.2,0-0.4,0-0.4s0,0.1,0.1,0.4
		c0,0.1,0.1,0.3,0.1,0.4c0,0.2,0.1,0.4,0.2,0.6c0,0.1,0.1,0.2,0.1,0.3c0,0.1,0.1,0.2,0.1,0.3c0.1,0.2,0.2,0.5,0.3,0.7
		c0.1,0.2,0.2,0.5,0.3,0.7c0.1,0.1,0.1,0.2,0.2,0.4l0.1,0.2l0.1,0.2c0,0.1,0.1,0.1,0.1,0.2c0.4-1.4,0.7-2.8,0.7-4.4
		c0-6.6-4.5-12.1-10.6-13.6c0.1,0.1,0.2,0.3,0.2,0.4c0.1,0.1,0.2,0.3,0.2,0.4c0,0.1,0.1,0.1,0.1,0.2c0,0.1,0.1,0.2,0.1,0.2
		c0.1,0.1,0.1,0.3,0.2,0.5c0,0,0,0.1,0,0.1c0,0.1,0,0.1,0,0.2l0,0.2l0,0.2c0,0.1,0,0.2,0,0.2c0,0.2,0,0.3,0,0.5c0,0.2,0,0.3,0,0.5
		l0,0.2c0,0.1,0,0.2,0,0.2L18.4,5c0,0.2-0.1,0.3-0.1,0.5c-0.1,0.3-0.2,0.6-0.3,0.9c0,0.1-0.1,0.3-0.2,0.4c-0.1,0.1-0.1,0.3-0.2,0.4
		c-0.1,0.1-0.1,0.3-0.2,0.4c-0.1,0.1-0.1,0.2-0.2,0.4c-0.1,0.1-0.1,0.2-0.2,0.4c-0.1,0.1-0.2,0.2-0.2,0.3c-0.1,0.1-0.1,0.2-0.2,0.3
		c-0.1,0.1-0.2,0.2-0.2,0.3c-0.1,0.1-0.2,0.2-0.2,0.3c-0.1,0.1-0.2,0.2-0.2,0.3c-0.2,0.2-0.3,0.3-0.5,0.5c-0.1,0.1-0.1,0.2-0.2,0.2
		c-0.1,0.1-0.1,0.1-0.2,0.2c-0.1,0.1-0.3,0.3-0.4,0.4c-0.2,0.3-0.5,0.5-0.7,0.6c-0.4,0.3-0.6,0.5-0.6,0.5s0.2-0.2,0.5-0.6
		c0.2-0.2,0.4-0.4,0.6-0.7c0.1-0.1,0.2-0.3,0.3-0.4c0.1-0.1,0.1-0.2,0.2-0.2c0.1-0.1,0.1-0.2,0.2-0.3c0.1-0.2,0.3-0.4,0.4-0.6
		c0.1-0.1,0.1-0.2,0.2-0.3c0.1-0.1,0.1-0.2,0.2-0.3c0.1-0.1,0.1-0.2,0.2-0.3c0.1-0.1,0.1-0.2,0.2-0.3c0.1-0.1,0.1-0.2,0.2-0.3
		c0.1-0.1,0.1-0.2,0.2-0.4c0-0.1,0.1-0.2,0.2-0.4c0-0.1,0.1-0.2,0.1-0.4c0-0.1,0.1-0.3,0.1-0.4C17,6.4,17,6.2,17,6.1
		c0.1-0.3,0.1-0.5,0.1-0.8c0-0.1,0-0.3,0-0.4l0-0.4c0-0.1,0-0.1,0-0.2l0-0.2c0-0.1,0-0.3,0-0.4c0-0.1-0.1-0.2-0.1-0.4
		c0-0.1,0-0.1-0.1-0.2L16.9,3c-0.2-0.5-0.4-0.9-0.7-1.3c0,0,0,0,0,0C16,1.4,15.8,1.2,15.6,1c-0.1-0.1-0.2-0.2-0.3-0.2
		c-0.3-0.3-0.6-0.5-1-0.7c-0.1,0-0.2,0-0.3,0C6.4,0,0.2,6.1,0.1,13.7"/>

</svg>
